<svg xmlns="http://www.w3.org/2000/svg" viewBox="-1 -1 184 144" fill="none">
  <!-- Background rectangle -->
  <rect x="0.5" y="0.5" width="181" height="141.25" fill="#FFEDE7" stroke="#A2A0A1" stroke-width="1"/>

  <!-- Vector6: vertical line -->
  <g transform="translate(106.79, 117.79)">
    <path d="M1 0V23.21" stroke="#B12E00" stroke-width="2"/>
  </g>

  <!-- Vector5: top-right connector -->
  <g transform="translate(153.17, 0)">
    <path d="M1 0V18.96C1 21.17 2.79 22.96 5 22.96H27.82" stroke="#B12E00" stroke-width="2"/>
  </g>

  <!-- Vector1: large L-shaped connector (light) -->
  <g transform="translate(89.75, 14.22)">
    <path d="M0 1H25.83C28.04 1 29.83 2.79 29.83 5V23.95C29.83 26.16 31.62 27.95 33.83 27.95H68.2C70.41 27.95 72.2 29.74 72.2 31.95V52.4C72.2 54.61 70.41 56.4 68.2 56.4H62.41C60.2 56.4 58.41 58.19 58.41 60.4V70.13" stroke="#FFDACF" stroke-width="2"/>
  </g>

  <!-- Vector3: left connectors (red) -->
  <path d="M0 48.91H41.63C43.83 48.91 45.63 47.12 45.63 44.91V0M0 123.78H27.34C29.55 123.78 31.34 121.99 31.34 119.78V101.57C31.34 99.37 33.13 97.57 35.34 97.57H58.41" stroke="#B12E00" stroke-width="2"/>

  <!-- Vector7: short vertical line at top-center -->
  <g transform="translate(89.75, 0)">
    <path d="M1 14.72V0" stroke="#B12E00" stroke-width="2"/>
  </g>

  <!-- 404 text (light pink fill) -->
  <g transform="translate(57.89, 53.34)">
    <path d="M11.08 25.51V20.7H0V16.1L9.82 0.43H16.24V16.53H19.42V20.7H16.24V25.51H11.08ZM4.33 16.53H11.08V6H10.72L4.33 16.53Z" fill="#FFDACF"/>
    <path d="M32.11 25.95C28.82 25.95 26.37 24.81 24.79 22.53C23.2 20.26 22.4 17.07 22.4 12.97C22.4 8.88 23.2 5.69 24.79 3.41C26.37 1.14 28.82 0 32.11 0C35.41 0 37.85 1.14 39.44 3.41C41.03 5.69 41.82 8.88 41.82 12.97C41.82 17.07 41.03 20.26 39.44 22.53C37.85 24.81 35.41 25.95 32.11 25.95ZM32.11 21.38C33.56 21.38 34.56 20.85 35.11 19.8C35.66 18.75 35.94 17.26 35.94 15.34V10.6C35.94 8.68 35.66 7.2 35.11 6.14C34.56 5.09 33.56 4.56 32.11 4.56C30.67 4.56 29.67 5.09 29.12 6.14C28.56 7.2 28.29 8.68 28.29 10.6V15.34C28.29 17.26 28.56 18.75 29.12 19.8C29.67 20.85 30.67 21.38 32.11 21.38Z" fill="#FFDACF"/>
    <path d="M55.82 25.51V20.7H44.73V16.1L54.55 0.43H60.98V16.53H64.16V20.7H60.98V25.51H55.82ZM49.07 16.53H55.82V6H55.46L49.07 16.53Z" fill="#FFDACF"/>
  </g>

  <!-- 404 stroke (red outline) -->
  <g transform="translate(56.89, 52.35)">
    <path fill-rule="evenodd" clip-rule="evenodd" d="M11.0825 27.5105V22.6951H0V16.8114L10.2654 0.431225H18.2501V16.5302H21.4269V22.6951H18.2501V27.5105H11.0825ZM17.2474 21.6969H20.4241V17.5284H17.2474V1.42943H10.8217L1.00276 17.0972V21.6969H12.0852V26.5123H17.2474V21.6969ZM12.0852 17.5284H5.33466L11.7242 6.9994H12.0852V17.5284ZM11.0825 9.98742L7.11194 16.5302H11.0825V9.98742ZM33.1169 27.9417C29.5607 27.9417 26.7774 26.6957 24.9653 24.0992C23.2166 21.5936 22.4035 18.1788 22.4035 13.9708C22.4035 9.7629 23.2166 6.34809 24.9653 3.84252C26.7774 1.246 29.5607 0 33.1169 0C36.6731 0 39.4565 1.24601 41.2686 3.84252C43.0172 6.34809 43.8304 9.7629 43.8304 13.9708C43.8304 18.1788 43.0172 21.5936 41.2686 24.0992C39.4565 26.6957 36.6731 27.9417 33.1169 27.9417ZM33.1169 21.3815C34.281 21.3815 34.8833 20.9859 35.2245 20.3361C35.6707 19.4863 35.9407 18.1859 35.9407 16.3426V11.5991C35.9407 9.75574 35.6707 8.45538 35.2245 7.60556C34.8833 6.9558 34.281 6.56019 33.1169 6.56019C31.9528 6.56019 31.3506 6.9558 31.0094 7.60556C30.5631 8.45538 30.2932 9.75574 30.2932 11.5991V16.3426C30.2932 18.1859 30.5631 19.4863 31.0094 20.3361C31.3506 20.9859 31.9528 21.3815 33.1169 21.3815ZM55.8172 27.5105V22.6951H44.7348V16.8114L55.0002 0.431225H62.9849V16.5302H66.1617V22.6951H62.9849V27.5105H55.8172ZM61.9822 21.6969H65.1589V17.5284H61.9822V1.42943H55.5565L45.7375 17.0972V21.6969H56.82V26.5123H61.9822V21.6969ZM56.82 17.5284H50.0694L56.459 6.9994H56.82V17.5284ZM55.8172 9.98742L51.8467 16.5302H55.8172V9.98742ZM25.7888 23.5296C27.3772 25.8055 29.8199 26.9435 33.1169 26.9435C36.414 26.9435 38.8567 25.8055 40.4451 23.5296C42.0334 21.2537 42.8276 18.0675 42.8276 13.9708C42.8276 9.87422 42.0334 6.68796 40.4451 4.41206C38.8567 2.13615 36.414 0.998202 33.1169 0.998202C29.8199 0.998202 27.3772 2.13615 25.7888 4.41206C24.2004 6.68796 23.4062 9.87422 23.4062 13.9708C23.4062 18.0675 24.2004 21.2537 25.7888 23.5296ZM36.1132 20.7985C35.5596 21.8526 34.5609 22.3797 33.1169 22.3797C31.673 22.3797 30.6742 21.8526 30.1207 20.7985C29.5672 19.7444 29.2904 18.2591 29.2904 16.3426V11.5991C29.2904 9.68256 29.5672 8.19724 30.1207 7.14314C30.6742 6.08904 31.673 5.56199 33.1169 5.56199C34.5609 5.56199 35.5596 6.08904 36.1132 7.14314C36.6667 8.19724 36.9434 9.68256 36.9434 11.5991V16.3426C36.9434 18.2591 36.6667 19.7444 36.1132 20.7985Z" fill="#B12E00"/>
  </g>

  <!-- Vector4: bottom-right connector (light) -->
  <g transform="translate(140.14, 114.04)">
    <path d="M1 27.7V5C1 2.79 2.79 1 5 1H40.86" stroke="#FFDACF" stroke-width="2"/>
  </g>

  <!-- Vector9: bottom-left connector (light, rotated 180) -->
  <g transform="translate(0, 49.91)">
    <g transform="rotate(180, 15.79, 15.35)">
      <path d="M1 31.69V5C1 2.79 2.79 1 5 1H32.59" stroke="#FFDACF" stroke-width="2"/>
    </g>
  </g>

  <!-- Vector2: right connector (red) -->
  <g transform="translate(148.16, 83.6)">
    <path d="M1 0V6.23C1 8.44 2.79 10.23 5 10.23H32.84" stroke="#B12E00" stroke-width="2"/>
  </g>

  <!-- Dot: red at (103.28, 113.8) -->
  <ellipse cx="106.79" cy="117.29" rx="3.51" ry="3.49" fill="#B12E00"/>
  <!-- Dot: red at (55.15, 93.33) -->
  <ellipse cx="58.66" cy="96.82" rx="3.51" ry="3.49" fill="#B12E00"/>
  <!-- Dot: light pink at (136.88, 125.77) -->
  <ellipse cx="140.39" cy="129.26" rx="3.51" ry="3.49" fill="#FFDACF"/>
  <!-- Dot: red at (27.83, 45.42) -->
  <ellipse cx="31.34" cy="48.91" rx="3.51" ry="3.49" fill="#B12E00"/>
  <!-- Dot: red at (144.9, 79.86) -->
  <ellipse cx="148.41" cy="83.35" rx="3.51" ry="3.49" fill="#B12E00"/>
  <!-- Dot: red at (165.45, 19.47) -->
  <ellipse cx="168.96" cy="22.96" rx="3.51" ry="3.49" fill="#B12E00"/>
  <!-- Dot: light pink at (86.24, 10.48) -->
  <ellipse cx="89.75" cy="13.97" rx="3.51" ry="3.49" fill="#FFDACF"/>
</svg>
